<svg width="100" height="100" viewBox="0 0 100 100" fill="none" xmlns="http://www.w3.org/2000/svg">
<rect width="100" height="100" rx="18" fill="white"/>
<path d="M74.4448 70.8336V37.5H38.8888V35.4166C38.8888 31.9704 41.8797 29.1667 45.5549 29.1667H52.2217V16.6667H45.5549C34.5283 16.6667 25.5555 25.0789 25.5555 35.4166V37.5H16.6666V50H25.5553V70.8336H16.6666V83.3334H47.7783V70.8336H38.8888V50H61.2348V70.8336H52.2217V83.3334H83.3333V70.8336H74.4448Z" fill="#1DBF73"/>
<path d="M67.7776 29.1668C71.4593 29.1668 74.445 26.3688 74.445 22.9168C74.445 19.4644 71.4593 16.6667 67.7776 16.6669C64.0962 16.6669 61.1113 19.4644 61.1113 22.9168C61.1113 26.3688 64.0962 29.1668 67.7776 29.1668Z" fill="#1DBF73"/>
</svg>
