<svg width="77" height="75" viewBox="0 0 77 75" fill="none" xmlns="http://www.w3.org/2000/svg">
<g clip-path="url(#clip0_691_853)">
<path d="M38.4953 2C17.7906 2 1 18.8562 1 39.65C1 56.2812 11.7438 70.3906 26.65 75.3734C28.525 75.7203 29.2094 74.5578 29.2094 73.5594C29.2094 72.6641 29.1766 70.2969 29.1578 67.1562C18.7281 69.4297 16.525 62.1078 16.525 62.1078C14.8234 57.7578 12.3625 56.6 12.3625 56.6C8.95469 54.2656 12.6156 54.3125 12.6156 54.3125C16.3797 54.5797 18.3578 58.1937 18.3578 58.1937C21.7047 63.9453 27.1375 62.2859 29.275 61.3203C29.6125 58.8875 30.5828 57.2281 31.6562 56.2859C23.3312 55.3344 14.575 52.1047 14.575 37.6813C14.575 33.5703 16.0375 30.2094 18.4375 27.575C18.0484 26.6234 16.7641 22.7937 18.8031 17.6141C18.8031 17.6141 21.9531 16.6016 29.1156 21.4719C32.1063 20.6375 35.3125 20.2203 38.5047 20.2063C41.6875 20.225 44.8984 20.6375 47.8937 21.4766C55.0516 16.6063 58.1969 17.6187 58.1969 17.6187C60.2406 22.8031 58.9562 26.6281 58.5719 27.5797C60.9766 30.2141 62.425 33.575 62.425 37.6859C62.425 52.1469 53.6594 55.3297 45.3062 56.2625C46.6516 57.425 47.8516 59.7219 47.8516 63.2328C47.8516 68.2672 47.8047 72.3266 47.8047 73.5594C47.8047 74.5672 48.4797 75.7391 50.3828 75.3687C65.2656 70.3812 76 56.2766 76 39.65C76 18.8562 59.2094 2 38.4953 2Z" fill="white"/>
</g>
<defs>
<clipPath id="clip0_691_853">
<rect width="75.8964" height="75" fill="white" transform="translate(0.370483)"/>
</clipPath>
</defs>
</svg>
