<svg width="75" height="75" viewBox="0 0 75 75" fill="none" xmlns="http://www.w3.org/2000/svg">
<path d="M51.5625 0H23.4375C10.4953 0 0 10.4953 0 23.4375V51.5625C0 64.5047 10.4953 75 23.4375 75H51.5625C64.5047 75 75 64.5047 75 51.5625V23.4375C75 10.4953 64.5047 0 51.5625 0ZM67.9688 51.5625C67.9688 60.6094 60.6094 67.9688 51.5625 67.9688H23.4375C14.3906 67.9688 7.03125 60.6094 7.03125 51.5625V23.4375C7.03125 14.3906 14.3906 7.03125 23.4375 7.03125H51.5625C60.6094 7.03125 67.9688 14.3906 67.9688 23.4375V51.5625Z" fill="#BA1B1B"/>
<path d="M37.5 18.75C27.1453 18.75 18.75 27.1453 18.75 37.5C18.75 47.8547 27.1453 56.25 37.5 56.25C47.8547 56.25 56.25 47.8547 56.25 37.5C56.25 27.1453 47.8547 18.75 37.5 18.75ZM37.5 49.2188C31.0406 49.2188 25.7812 43.9594 25.7812 37.5C25.7812 31.0359 31.0406 25.7812 37.5 25.7812C43.9594 25.7812 49.2188 31.0359 49.2188 37.5C49.2188 43.9594 43.9594 49.2188 37.5 49.2188Z" fill="#BA1B1B"/>
<path d="M57.6563 19.8422C59.0361 19.8422 60.1547 18.7236 60.1547 17.3438C60.1547 15.9639 59.0361 14.8453 57.6563 14.8453C56.2764 14.8453 55.1578 15.9639 55.1578 17.3438C55.1578 18.7236 56.2764 19.8422 57.6563 19.8422Z" fill="#BA1B1B"/>
</svg>
