<svg width="232" height="225" viewBox="0 0 232 225" fill="none" xmlns="http://www.w3.org/2000/svg">
<path d="M104.066 2.79653C111.724 -0.281501 120.276 -0.281497 127.934 2.79653L187.144 26.5947C195.016 29.7588 201.31 35.9198 204.641 43.723L228.637 99.9368C232.063 107.962 232.063 117.038 228.637 125.063L204.641 181.277C201.31 189.08 195.016 195.241 187.144 198.405L127.934 222.203C120.276 225.282 111.724 225.281 104.066 222.203L44.8561 198.405C36.9837 195.241 30.6902 189.08 27.3592 181.277L3.36292 125.063C-0.0628271 117.038 -0.062822 107.962 3.36293 99.9368L27.3592 43.7229C30.6902 35.9197 36.9837 29.7588 44.8561 26.5947L104.066 2.79653Z" fill="#F4397E" fill-opacity="0.3"/>
</svg>
