<svg width="100" height="100" viewBox="0 0 100 100" fill="none" xmlns="http://www.w3.org/2000/svg">
<rect width="100" height="100" rx="18" fill="white"/>
<path d="M16.6666 38.1008C17.7742 34.1009 19.4646 27.01 28.5581 21.1919C37.6516 15.3738 42.1984 16.8283 45.521 16.8283M39.5753 61.0097C40.6828 57.6763 43.5974 51.5553 50.0678 46.4644L39.5753 61.0097ZM50.0678 46.4644C55.3123 42.3382 59.9773 40.8281 61.6096 40.1008L50.0678 46.4644ZM50.0678 46.4644C48.6688 44.0402 43.8772 38.4645 42.1984 37.0099L50.0678 46.4644ZM27.5089 37.0099C28.0335 35.313 29.2576 30.6464 33.4546 28.1009C36.9403 25.9869 40.2748 25.5555 42.1984 25.9191L27.5089 37.0099Z" stroke="#E2831D" stroke-width="7" stroke-linecap="round" stroke-linejoin="round"/>
<path d="M68.9545 83.0095C60.2688 85.079 46.8036 76.7674 41.1493 71.1915C38.4679 68.4642 33.21 63.6642 30.1322 57.5552C26.2849 49.9189 34.1544 37.7208 42.1986 33.9191C50.2428 30.1174 55.7318 30.4415 60.5605 33.01C68.0801 37.01 81.5455 53.7371 83.1194 63.0097C84.6933 72.2824 77.3485 81.0095 68.9545 83.0095Z" stroke="#E2831D" stroke-width="7" stroke-linecap="round" stroke-linejoin="round"/>
</svg>
